# xmcd
#
# Track frame offsets: 
#        150
#        12569
#        25072
#        37660
#        57095
#        72141
#        101208
#        121632
#        163105
#        183345
#        198728
#        239140
#        272825
#        287622
#        311451
#
# Disc length: 4697 seconds
#
# Revision: 1
# Processed by: cddbd v1.5.2PL0 Copyright (c) Steve Scherf et al.
# Submitted via: ExactAudioCopy v1.0b3
#
DISCID=d012570f
DTITLE=James Brown - Greatest Hits
DYEAR=2001
DGENRE=Soul
TTITLE0=Please, Please, Please
TTITLE1=It's a Man's, Man's, Man's World
TTITLE2=I Got You (I Feel Good)
TTITLE3=Papa's Got a Brand New Bag
TTITLE4=Soul Power
TTITLE5=It's a New Day
TTITLE6=Give It Up Or Turnit a Loose
TTITLE7=Funky Drummer
TTITLE8=Papa Don't Take No Mess
TTITLE9=Talkin' Loud and Sayin' Nothing
TTITLE10=People Get Up And Drive Your Funky Soul
TTITLE11=The Payback
TTITLE12=Sunny (Feat. Dee Felice Trio)
TTITLE13=(Get Up I Feel Like Being a) Sex Machine
TTITLE14=Public Enemy #1
EXTD=
EXTT0=
EXTT1=
EXTT2=
EXTT3=
EXTT4=
EXTT5=
EXTT6=
EXTT7=
EXTT8=
EXTT9=
EXTT10=
EXTT11=
EXTT12=
EXTT13=
EXTT14=
PLAYORDER=
